<?xml version="1.0" encoding="UTF-8"?>
<!-- Created with Inkscape (http://www.inkscape.org/) -->
<svg width="704" height="156" version="1.0" xml:space="preserve" xmlns="http://www.w3.org/2000/svg" xmlns:cc="http://creativecommons.org/ns#" xmlns:dc="http://purl.org/dc/elements/1.1/" xmlns:rdf="http://www.w3.org/1999/02/22-rdf-syntax-ns#"><metadata><rdf:RDF><cc:Work rdf:about=""><dc:format>image/svg+xml</dc:format><dc:type rdf:resource="http://purl.org/dc/dcmitype/StillImage"/><dc:title/></cc:Work></rdf:RDF></metadata><rect width="704" height="156" fill="#007cc8"/><g fill="#fff" fill-rule="evenodd"><path d="m164.06 150.53h78.619l-7.8286-39.693h-78.619z"/><path d="m213.76 4.3992h-45.152c-21.705 0-41.171 8.3474-52.419 20.72l-16.609 18.037h121.8l-7.619-38.757"/><path d="m85.783 143.86 30.714-33.025h-79.019l-36.448 39.693h67.752c7.019 0 13.343-2.6425 17-6.6683"/><path d="m223.34 52.901h-132.7l-8.7619 9.5654h143.33z"/><path d="m229.08 81.755-1.9048-9.5241h-154.3l-8.6666 9.5241z"/><path d="m46.43 101.01 8.7524-9.4415h175.78l1.9428 9.4415z"/><path d="m266.04 110.84-11.743 39.693 65.781-0.0275c4.3428 0 8.1047-2.1195 9.0666-5.1268l10.229-34.539h-73.333"/><path d="m482.95 43.156 11.419-38.757h-65.866c-4.2762 0-8 2.2847-9.019 5.2369l-9.8666 33.52h73.333"/><path d="m451.26 150.5 11.724-39.665h-33.6l-5.3714-9.8269h41.905l2.8-9.4415h-49.99l-5.3809-9.8131h58.228l2.8381-9.5241h-66.324l-5.3905-9.765h74.552l2.7809-9.5035h-82.571l-17.257-31.304c-5.9238-9.937-19.362-16.784-35.505-17.259h-47.409l-11.343 38.757h32.724l5.3905 9.8063h-40.952l-2.7905 9.5035h49l5.4095 9.765h-57.276l-2.8571 9.5241h65.352l5.4381 9.8131h-73.676l-2.7905 9.4415h81.724l17.79 32.398c5.9047 9.9508 19.381 16.894 35.543 17.121l47.286-0.0275"/><path d="m495.72 110.84c-10.438 11.836-17.771 25.31-21 39.693h176.3c4.3524 0 8.0571-2.1471 8.9524-5.1543l9.4286-34.539h-173.69"/><path d="m554.31 62.466h105.67c4.3619-3.0141 8.5524-6.1934 12.429-9.5654h-106.16l-11.933 9.5654"/><path d="m635.88 81.755 11.838-9.5241h-105.67l-11.895 9.5241z"/><path d="m623.56 91.568h-105.64c-4.4095 2.9316-8.5809 6.1659-12.448 9.4415h106.18l11.905-9.4415"/><path d="m509.67 43.156h171.94c10.238-11.589 17.419-24.636 20.8-38.757h-182.13l-10.609 38.757"/></g></svg>
