<?xml version="1.0" encoding="UTF-8"?>
<!DOCTYPE svg PUBLIC "-//W3C//DTD SVG 1.1//EN" "http://www.w3.org/Graphics/SVG/1.1/DTD/svg11.dtd">
<!-- Creator: CorelDRAW 2021.5 -->
<svg xmlns="http://www.w3.org/2000/svg" xml:space="preserve" width="2070px" height="1479px" version="1.1" style="shape-rendering:geometricPrecision; text-rendering:geometricPrecision; image-rendering:optimizeQuality; fill-rule:evenodd; clip-rule:evenodd"
viewBox="0 0 2072.64 1480.33"
 xmlns:xlink="http://www.w3.org/1999/xlink"
 xmlns:xodm="http://www.corel.com/coreldraw/odm/2003">
 <defs>
  <style type="text/css">
   <![CDATA[
    .fil0 {fill:#6A2889}
    .fil1 {fill:#F58A33}
    .fil2 {fill:#6A2889;fill-rule:nonzero}
    .fil3 {fill:#F58A33;fill-rule:nonzero}
   ]]>
  </style>
 </defs>
 <g id="Layer_x0020_1">
  <metadata id="CorelCorpID_0Corel-Layer"/>
  <path class="fil0" d="M936.6 435.75l0 -245.52 -173.58 114.91 0 130.61 173.58 0zm96.19 531.34l-96.19 -63.5 0 -371.54 -173.58 0 0 256.92 -96.08 -63.44 0 -241.84 0 -241.85 365.85 -241.84 0 967.09z"/>
  <path class="fil1" d="M1039.4 0l366.66 241.84 0 483.69 -366.66 241.56 0 -967.09zm270.78 435.75l0 -130.61 -174.72 -114.91 0 245.52 174.72 0zm-174.72 96.3l0 245.55 174.72 -115.38 0 -130.17 -174.72 0z"/>
  <path class="fil2" d="M1872.52 1100.04l199.11 0 0 42.24 -145.14 0 0 25.96 137.75 0 0 39.51 -137.75 0 0 28.82 146.15 0 0 43.18 -200.12 0 0 -179.71 0 0zm-270.57 133.87l76.24 0c14.07,0 24.4,-0.45 31,-1.4 6.66,-0.89 11.33,-2.5 14.04,-4.8 3,-2.51 5.13,-6.56 6.33,-12.09 1.21,-5.52 1.85,-13.89 1.85,-25.03 0,-11.15 -0.54,-19.49 -1.58,-25.11 -1.07,-5.62 -2.93,-9.93 -5.53,-12.91 -3.03,-3.22 -7.32,-5.35 -13,-6.24 -5.65,-0.95 -16.84,-1.38 -33.6,-1.38l-75.75 0 0 88.96 0 0zm-53.96 45.84l0 -179.71 129.71 0c22.95,0 38.02,0.18 45.11,0.52 7.15,0.37 14.57,1.31 22.29,2.88 17.98,3.69 29.71,13.89 35.15,30.58 2.02,6.29 3.37,13.07 4.09,20.31 0.67,7.27 1.03,18.2 1.03,32.86 0,16.07 -0.39,28.19 -1.26,36.49 -0.8,8.27 -2.37,15.76 -4.66,22.51 -5.36,15.76 -16.37,25.53 -33.04,29.22 -7.84,1.74 -16.18,2.91 -25.03,3.51 -8.86,0.58 -23.37,0.83 -43.57,0.83l-129.82 0 0 0zm-148.23 -179.71l57.51 0 0 179.71 -57.51 0 0 -179.71 0 0zm-453.31 0l55.82 0 48.17 134.55 10.15 0 40.69 -134.55 66.11 0 40.93 134.55 10.29 0 48.46 -134.55 58.07 0 -69.93 179.71 -84.55 0 -36.09 -131.8 -35.68 131.8 -84.76 0 -67.68 -179.71 0 0zm-286.75 120.22l53.05 0c-0.09,8.85 1.7,14.56 5.39,17.13 2.65,1.63 6.07,2.65 10.2,2.96 4.2,0.29 17.36,0.53 39.47,0.71 23.13,-0.07 37.08,-0.22 41.69,-0.46 4.67,-0.21 8.37,-0.89 11.06,-2.05 4.06,-1.67 6.07,-6.16 6.07,-13.58 0,-5.35 -1.45,-8.89 -4.27,-10.7 -2.88,-1.79 -8.67,-2.78 -17.44,-2.96 -6.78,0 -21.09,-0.54 -42.93,-1.58 -22.36,-1.07 -36.95,-1.71 -43.73,-1.83 -13.14,-0.46 -23.27,-1.71 -30.33,-3.77 -7.03,-2.07 -12.58,-5.45 -16.49,-10.09 -6.78,-7.71 -10.16,-20.62 -10.16,-38.73 0,-20.27 3.87,-34.56 11.6,-42.91 5.89,-6.53 14.93,-10.66 27.11,-12.45 12.22,-1.81 37.02,-2.69 74.42,-2.69 26.42,0 44.98,0.74 55.68,2.23 16.49,2.29 27.82,6.87 33.98,13.77 6.15,6.9 9.2,18.5 9.2,34.81 0,1.53 -0.03,4.33 -0.13,8.46l-53.07 0c-0.18,-5.04 -0.59,-8.46 -1.26,-10.29 -0.64,-1.84 -1.92,-3.35 -3.87,-4.49 -2.38,-1.41 -6.55,-2.31 -12.49,-2.71 -5.98,-0.4 -18.62,-0.59 -37.95,-0.59 -23.27,0 -37.42,0.73 -42.51,2.17 -5.07,1.47 -7.64,5.47 -7.64,12.04 0,6.34 2.57,10.2 7.64,11.6 4.24,1.16 23.56,2.25 58.09,3.32 29.02,0.86 48.44,1.9 58.22,3.06 9.8,1.2 17.59,3.45 23.39,6.78 6.54,3.95 11.23,9.4 13.94,16.27 2.73,6.92 4.08,16.82 4.08,29.72 0,16.94 -2.3,29.56 -6.84,37.8 -3.42,6.05 -8.18,10.6 -14.29,13.56 -6.11,2.97 -14.69,4.98 -25.75,6.07 -11.86,1.04 -33.93,1.57 -66.2,1.57 -27.06,0 -47,-0.73 -59.89,-2.11 -12.91,-1.38 -22.62,-3.91 -29.15,-7.51 -6.75,-3.88 -11.4,-8.95 -14.02,-15.28 -2.55,-6.29 -3.87,-15.91 -3.87,-28.85l0 -8.4 0 0zm-317.14 -120.22l54.78 0 0 82.55c0.26,18.98 0.95,30.98 1.96,35.96 1.41,7 5.95,11.63 13.62,13.84 7.7,2.2 23.19,3.27 46.52,3.27 18.96,0 32.14,-0.53 39.45,-1.65 7.33,-1.08 12.51,-3.24 15.6,-6.53 2.02,-2.28 3.42,-5.02 4.27,-8.26 0.82,-3.29 1.5,-8.85 1.9,-16.76 0.45,-8.04 0.67,-14.69 0.67,-19.87l0 -82.55 54.78 0 0 82.55c-0.63,28.72 -1.53,47.51 -2.78,56.36 -2.16,15.09 -9.35,26.16 -21.58,33.17 -6.91,4.05 -16.71,6.8 -29.35,8.18 -12.64,1.38 -33.38,2.11 -62.29,2.11 -21.66,0 -38.39,-0.4 -50.13,-1.17 -11.79,-0.8 -22,-2.19 -30.73,-4.23 -19.18,-4.58 -30.42,-16.19 -33.69,-34.79 -1.22,-7.09 -1.98,-13.56 -2.31,-19.33 -0.31,-5.77 -0.53,-19.23 -0.69,-40.3l0 -82.55 0 0zm-164.9 109.93l-34.66 -68.06 -10.92 0 -34.66 68.06 80.24 0 0 0zm34.6 69.78l-15.42 -30.42 -118.87 0 -15.42 30.42 -62.55 0 95.31 -179.71 85.08 0 94.02 179.71 -62.15 0 0 0z"/>
  <path class="fil3" d="M625.19 1453.04c20.29,-0.16 20.29,-0.16 22.85,-1.19 3.07,-1.2 4.43,-3.75 4.43,-8.7 0,-5.11 -1.53,-7.5 -5.11,-8.52 -1.88,-0.51 -1.88,-0.51 -22.17,-0.51l-48.96 0 0 18.92 48.96 0zm-0.17 -41.61c11.77,0 16.88,-0.35 19.1,-1.19 2.73,-1.02 4.1,-3.92 4.1,-8.19 0,-4.6 -1.55,-7.16 -4.95,-8.02 -1.88,-0.51 -2.22,-0.51 -18.25,-0.68l-48.79 0 0 18.08 48.79 0zm-81.7 -44.85l81.7 0c37.69,0.17 38.88,0.17 45.19,3.23 8.36,3.93 11.6,11.43 11.6,26.45 0,16.19 -3.93,22.85 -15.35,26.08 15.02,2.56 19.62,9.22 19.62,27.46 0,15.86 -4.1,24.05 -13.66,27.81 -3.92,1.35 -10.4,2.21 -20.62,2.55 -1.37,0 -10.24,0 -26.61,0.17l-81.87 0 0 -113.75z"/>
  <path class="fil3" d="M888.36 1393.01l-6.82 0 -22 43.15 50.83 0 -22.01 -43.15zm34.11 68.05l-75.22 0 -9.71 19.27 -39.57 0 60.2 -113.75 53.9 0 59.51 113.75 -39.38 0 -9.73 -19.27z"/>
  <polygon class="fil3" points="1148.13,1366.58 1207.63,1451.34 1211.23,1451.34 1210.37,1366.58 1245.67,1366.58 1245.67,1480.33 1185.47,1480.33 1125.61,1395.57 1121.86,1395.57 1122.71,1480.33 1087.41,1480.33 1087.41,1366.58 "/>
  <polygon class="fil3" points="1406.86,1366.58 1406.86,1407.85 1425.79,1407.85 1470.82,1365.89 1523.86,1365.89 1458.02,1422.34 1529.32,1480.33 1476.79,1480.33 1425.79,1436.84 1406.86,1436.84 1406.86,1480.33 1372.24,1480.33 1372.24,1366.58 "/>
  <polygon class="fil1" points="0,1417.53 447.49,1417.53 447.49,1426.2 0,1426.2 0,1417.53 "/>
  <polygon class="fil1" points="1625.15,1417.53 2072.64,1417.53 2072.64,1426.2 1625.15,1426.2 1625.15,1417.53 "/>
 </g>
</svg>
