<?xml version="1.0" encoding="UTF-8" standalone="no"?>
<!DOCTYPE svg PUBLIC "-//W3C//DTD SVG 1.1//EN" "http://www.w3.org/Graphics/SVG/1.1/DTD/svg11.dtd">
<svg xmlns="http://www.w3.org/2000/svg" version="1.1" viewBox="0.00 0.00 2450.00 430.00">
<path fill="#000000" d="
  M 228.30 0.00
  L 254.10 0.00
  Q 326.50 2.82 384.39 43.87
  C 414.50 65.22 439.32 95.30 454.18 128.28
  C 483.80 194.04 477.89 271.87 437.40 331.68
  C 396.84 391.61 329.00 426.35 257.14 430.00
  L 225.92 430.00
  C 102.84 422.63 2.80 325.20 12.71 197.93
  C 21.56 84.24 118.18 5.41 228.30 0.00
  Z
  M 436.73 237.55
  C 433.37 282.03 415.66 323.91 386.70 357.86
  C 384.62 360.31 382.92 361.87 381.60 365.02
  A 0.61 0.61 0.0 0 0 382.56 365.72
  Q 389.94 359.32 397.24 352.25
  C 441.77 309.09 463.99 245.21 453.53 183.85
  Q 441.39 112.60 385.36 64.86
  Q 383.74 63.48 382.24 63.94
  A 0.64 0.63 68.3 0 0 381.86 64.83
  Q 382.79 66.70 383.73 67.76
  Q 423.27 112.28 434.19 171.02
  Q 437.22 187.33 437.14 202.50
  C 437.07 214.78 437.51 227.23 436.73 237.55
  Z
  M 99.22 66.49
  C 53.82 104.11 27.46 160.08 28.76 219.24
  C 30.02 276.14 55.04 326.66 97.85 363.42
  Q 100.04 365.29 102.38 366.24
  A 0.54 0.54 0.0 0 0 103.13 365.74
  Q 103.13 364.20 101.79 362.71
  Q 56.39 312.45 48.36 244.25
  Q 45.20 217.36 48.28 187.67
  C 52.98 142.51 71.91 101.43 102.44 67.52
  Q 104.43 65.31 101.45 65.17
  Q 100.85 65.14 99.22 66.49
  Z
  M 151.17 233.75
  C 158.55 275.39 191.58 309.77 234.78 314.29
  C 259.13 316.85 284.76 307.13 302.50 290.77
  C 356.92 240.56 341.38 143.63 268.40 119.92
  C 248.93 113.59 227.05 114.72 208.35 122.81
  C 165.09 141.51 143.09 188.14 151.17 233.75
  Z
  M 170.34 123.87
  C 137.03 143.76 112.98 177.73 114.41 217.75
  Q 115.61 251.45 137.71 277.81
  Q 152.15 295.04 172.14 307.10
  A 1.20 1.20 0.0 0 0 173.93 305.78
  Q 173.70 304.90 172.51 304.30
  Q 171.39 303.73 170.88 303.23
  Q 126.46 260.20 133.58 198.63
  Q 137.05 168.68 155.59 143.44
  C 160.63 136.58 167.26 130.15 173.62 123.95
  A 0.62 0.62 0.0 0 0 173.15 122.88
  Q 171.86 122.96 170.34 123.87
  Z
  M 351.51 227.25
  C 348.79 257.45 334.47 285.18 311.84 305.34
  Q 310.24 306.77 312.29 307.40
  Q 312.51 307.47 313.85 306.64
  Q 333.18 294.69 347.83 277.33
  C 373.90 246.42 377.73 202.64 357.79 167.71
  C 348.69 151.76 334.79 137.77 319.59 127.40
  Q 315.97 124.93 311.96 123.19
  Q 310.71 122.65 310.99 124.11
  A 0.70 0.70 0.0 0 0 311.24 124.52
  Q 316.86 129.08 321.68 134.58
  Q 356.30 174.13 351.51 227.25
  Z"
/>
<path fill="#000000" d="
  M 1066.79 176.09
  C 1081.17 136.02 1120.46 107.80 1163.00 106.81
  C 1170.72 106.63 1180.97 106.77 1188.93 108.32
  Q 1232.11 116.75 1256.81 153.79
  Q 1257.05 154.15 1256.71 154.41
  L 1234.18 171.51
  A 1.10 1.09 53.3 0 1 1232.63 171.28
  C 1229.22 166.49 1225.54 161.42 1221.54 157.43
  C 1203.95 139.90 1178.88 132.17 1154.45 136.79
  C 1119.47 143.40 1092.92 173.65 1092.00 209.75
  Q 1091.75 219.66 1092.70 227.73
  Q 1094.84 245.74 1105.19 260.60
  C 1134.39 302.56 1192.73 305.94 1226.31 267.30
  Q 1230.02 263.04 1232.50 258.14
  A 0.73 0.73 0.0 0 1 1233.59 257.89
  L 1256.37 275.26
  Q 1256.84 275.62 1256.53 276.12
  Q 1247.39 290.90 1233.58 301.57
  Q 1206.92 322.14 1171.75 323.15
  Q 1149.10 323.80 1129.32 316.56
  C 1094.52 303.82 1068.47 272.44 1061.88 236.04
  Q 1056.31 205.29 1066.79 176.09
  Z"
/>
<path fill="#000000" d="
  M 1453.61 299.56
  A 2.05 2.04 -43.4 0 0 1450.96 299.49
  Q 1416.26 327.39 1370.75 322.54
  C 1349.66 320.30 1330.42 312.00 1314.36 298.33
  C 1286.79 274.87 1272.80 240.36 1276.71 203.78
  Q 1280.22 170.99 1301.04 146.30
  C 1347.65 91.00 1435.23 96.84 1473.77 158.56
  C 1496.04 194.22 1494.82 240.48 1472.22 275.67
  Q 1471.49 276.80 1472.49 277.71
  L 1515.91 317.08
  Q 1517.88 318.87 1515.21 318.91
  Q 1496.80 319.19 1476.75 319.01
  Q 1474.43 318.99 1471.80 316.46
  Q 1462.82 307.82 1453.61 299.56
  Z
  M 1421.53 231.96
  Q 1423.40 233.18 1426.37 235.88
  Q 1435.13 243.88 1443.84 251.92
  Q 1445.77 253.70 1447.68 254.90
  Q 1448.34 255.32 1448.70 254.62
  Q 1455.50 241.04 1457.24 226.74
  C 1458.89 213.24 1458.67 198.77 1453.93 186.08
  C 1440.23 149.39 1402.45 128.56 1364.06 138.23
  Q 1354.63 140.60 1345.67 145.85
  Q 1311.19 166.01 1307.43 206.52
  C 1304.12 242.32 1322.21 276.22 1356.38 289.32
  Q 1392.32 303.09 1425.81 280.49
  Q 1427.29 279.49 1428.67 278.54
  Q 1429.22 278.16 1428.72 277.71
  L 1401.29 252.87
  A 1.20 1.19 -46.4 0 1 1401.25 251.14
  L 1420.51 232.06
  A 0.82 0.82 0.0 0 1 1421.53 231.96
  Z"
/>
<path fill="#000000" d="
  M 1000.07 266.19
  A 2.00 1.99 -11.7 0 0 998.24 264.99
  L 897.03 265.00
  A 3.51 3.51 0.0 0 0 893.83 267.07
  L 870.93 317.55
  A 2.54 2.51 12.1 0 1 868.63 319.02
  Q 854.43 319.03 841.08 318.78
  Q 840.46 318.77 840.24 318.67
  A 0.81 0.74 24.7 0 1 839.81 317.66
  L 934.61 112.27
  A 2.28 2.28 0.0 0 1 936.66 110.95
  L 958.86 110.80
  Q 959.38 110.79 959.60 111.27
  L 1054.03 317.23
  A 1.24 1.23 -12.5 0 1 1052.91 318.98
  L 1024.75 319.00
  A 1.12 1.12 0.0 0 1 1023.81 318.49
  Q 1023.03 317.29 1022.08 315.23
  Q 1010.63 290.56 1000.07 266.19
  Z
  M 986.88 237.03
  A 0.30 0.30 0.0 0 0 987.15 236.61
  L 948.22 149.98
  A 0.30 0.30 0.0 0 0 947.68 149.98
  L 908.45 236.59
  A 0.30 0.30 0.0 0 0 908.73 237.01
  L 986.88 237.03
  Z"
/>
<path fill="#000000" d="
  M 1885.11 265.97
  L 1781.20 266.01
  A 0.95 0.95 0.0 0 0 1780.34 266.57
  L 1756.54 319.42
  A 0.95 0.95 0.0 0 1 1755.68 319.98
  L 1726.04 320.01
  A 0.95 0.95 0.0 0 1 1725.18 318.66
  L 1820.19 111.43
  A 0.95 0.95 0.0 0 1 1821.06 110.87
  L 1845.23 111.00
  A 0.95 0.95 0.0 0 1 1846.09 111.55
  L 1941.05 318.63
  A 0.95 0.95 0.0 0 1 1940.19 319.97
  L 1910.69 320.01
  A 0.95 0.95 0.0 0 1 1909.83 319.45
  L 1885.97 266.53
  A 0.95 0.95 0.0 0 0 1885.11 265.97
  Z
  M 1793.86 236.27
  A 0.52 0.52 0.0 0 0 1794.33 237.00
  L 1872.05 237.00
  A 0.52 0.52 0.0 0 0 1872.52 236.27
  L 1833.66 150.44
  A 0.52 0.52 0.0 0 0 1832.72 150.44
  L 1793.86 236.27
  Z"
/>
<path fill="#000000" d="
  M 615.30 147.19
  C 615.37 148.59 614.98 149.98 614.98 151.27
  Q 615.03 234.53 614.99 318.26
  A 0.74 0.74 0.0 0 1 614.25 319.00
  L 585.75 319.00
  A 0.75 0.75 0.0 0 1 585.00 318.25
  L 585.00 112.00
  A 1.01 1.00 -90.0 0 1 586.00 110.99
  L 630.94 110.98
  Q 631.47 110.98 631.68 111.47
  L 699.56 276.96
  A 0.50 0.50 0.0 0 0 700.49 276.96
  L 768.42 111.52
  Q 768.66 110.93 769.29 110.94
  L 814.50 111.01
  A 0.50 0.50 0.0 0 1 815.00 111.51
  L 815.00 318.25
  A 0.75 0.75 0.0 0 1 814.25 319.00
  L 786.00 319.00
  Q 785.01 319.00 785.01 318.00
  L 784.98 149.21
  Q 784.98 145.96 783.74 148.96
  L 713.54 318.71
  A 0.56 0.56 0.0 0 1 713.02 319.06
  L 687.20 318.99
  A 0.93 0.92 -10.6 0 1 686.36 318.42
  L 615.58 147.13
  A 0.15 0.15 0.0 0 0 615.30 147.19
  Z"
/>
<path fill="#000000" d="
  M 1711.94 231.49
  C 1711.86 268.45 1696.00 301.98 1660.24 316.31
  C 1644.51 322.62 1627.51 323.81 1610.50 323.09
  Q 1594.52 322.41 1581.25 317.23
  C 1543.55 302.53 1527.42 270.54 1527.24 231.25
  Q 1526.97 171.87 1526.98 112.02
  A 1.02 1.02 0.0 0 1 1528.00 111.00
  L 1557.48 111.00
  Q 1558.00 111.00 1558.00 111.52
  Q 1558.02 169.04 1557.96 226.49
  C 1557.95 237.06 1559.17 248.18 1562.68 257.81
  C 1570.92 280.45 1589.42 291.75 1613.01 293.16
  C 1636.42 294.56 1659.86 288.51 1671.88 267.11
  C 1679.00 254.43 1680.90 238.71 1680.93 224.00
  Q 1681.07 168.26 1680.98 112.02
  A 1.02 1.02 0.0 0 1 1682.00 111.00
  L 1711.48 111.01
  Q 1711.97 111.01 1711.97 111.50
  Q 1712.08 171.53 1711.94 231.49
  Z"
/>
<path fill="#000000" d="
  M 1997.00 232.51
  L 1997.00 319.50
  Q 1997.00 320.00 1996.50 320.00
  L 1966.50 320.00
  Q 1966.00 320.00 1966.00 319.50
  L 1966.00 112.02
  A 1.03 1.02 -0.0 0 1 1967.03 111.00
  Q 2021.22 111.00 2075.25 111.00
  C 2092.77 111.00 2109.49 113.25 2123.72 123.41
  C 2140.27 135.23 2146.35 153.92 2146.18 173.75
  C 2145.97 197.53 2132.20 218.75 2109.99 227.41
  C 2106.12 228.92 2101.21 229.93 2096.86 231.14
  Q 2095.89 231.41 2096.45 232.25
  L 2153.56 316.96
  Q 2154.93 318.98 2152.49 318.99
  L 2120.97 319.05
  A 3.77 3.74 -16.7 0 1 2117.84 317.38
  L 2062.21 233.80
  A 4.13 4.11 73.0 0 0 2058.76 231.95
  L 1997.49 232.02
  Q 1997.00 232.02 1997.00 232.51
  Z
  M 1997.94 140.98
  L 1998.04 203.12
  A 0.92 0.92 0.0 0 0 1998.97 204.04
  L 2082.36 203.90
  A 32.81 29.73 -0.1 0 0 2115.11 174.11
  L 2115.11 169.59
  A 32.81 29.73 -0.1 0 0 2082.24 139.92
  L 1998.85 140.06
  A 0.92 0.92 0.0 0 0 1997.94 140.98
  Z"
/>
<rect fill="#000000" x="2192.00" y="111.00" width="31.00" height="208.00" rx="0.64"/>
<path fill="#000000" d="
  M 2303.00 140.61
  L 2303.00 196.39
  A 0.61 0.61 0.0 0 0 2303.61 197.00
  L 2421.39 197.00
  A 0.61 0.61 0.0 0 1 2422.00 197.61
  L 2422.00 225.39
  A 0.61 0.61 0.0 0 1 2421.39 226.00
  L 2303.61 226.00
  A 0.61 0.61 0.0 0 0 2303.00 226.61
  L 2303.00 289.39
  A 0.61 0.61 0.0 0 0 2303.61 290.00
  L 2437.39 290.00
  A 0.61 0.61 0.0 0 1 2438.00 290.61
  L 2438.00 318.39
  A 0.61 0.61 0.0 0 1 2437.39 319.00
  L 2272.61 319.00
  A 0.61 0.61 0.0 0 1 2272.00 318.39
  L 2272.00 111.60
  A 0.61 0.61 0.0 0 1 2272.61 110.99
  L 2435.39 111.01
  A 0.61 0.61 0.0 0 1 2436.00 111.62
  L 2436.00 139.39
  A 0.61 0.61 0.0 0 1 2435.39 140.00
  L 2303.61 140.00
  A 0.61 0.61 0.0 0 0 2303.00 140.61
  Z"
/>
</svg>
